<svg width="228" height="33" viewBox="0 0 228 33" fill="none" xmlns="http://www.w3.org/2000/svg">
<path d="M86 33V0.94964H98.5103C102.05 0.94964 105.107 1.59592 107.682 2.88849C110.256 4.18105 112.227 6.02758 113.595 8.42806C114.99 10.8285 115.687 13.6775 115.687 16.9748C115.687 20.2458 114.99 23.0815 113.595 25.482C112.201 27.8825 110.216 29.7422 107.642 31.0612C105.067 32.3537 102.023 33 98.5103 33H86ZM92.1546 27.8561H98.5103C102.077 27.8561 104.799 26.8801 106.676 24.9281C108.58 22.976 109.532 20.3249 109.532 16.9748C109.532 13.5983 108.58 10.9472 106.676 9.02158C104.799 7.06954 102.077 6.09353 98.5103 6.09353H92.1546V27.8561Z" fill="#202121"/>
<path d="M116.319 33L130.157 0.94964H136.553L150.31 33H144.035L140.455 24.6115H126.014L122.393 33H116.319ZM127.945 19.5468H138.725L133.455 7.1223H133.254L127.945 19.5468Z" fill="#202121"/>
<path d="M151.824 33V28.8849L169.604 6.17266H152.548V0.94964H177.489V5.06475L159.749 27.777H177.971V33H151.824Z" fill="#202121"/>
<path d="M183.027 33V0.94964H189.141V33H183.027Z" fill="#202121"/>
<path d="M211.467 33C208.142 33 205.232 32.3273 202.738 30.982C200.271 29.6103 198.353 27.6978 196.986 25.2446C195.618 22.765 194.934 19.8501 194.934 16.5C194.934 13.1235 195.618 10.2086 196.986 7.75539C198.353 5.27578 200.271 3.36331 202.738 2.01798C205.232 0.672661 208.142 0 211.467 0C214.819 0 217.729 0.672661 220.196 2.01798C222.69 3.36331 224.608 5.27578 225.948 7.75539C227.316 10.2086 228 13.1235 228 16.5C228 19.8501 227.316 22.765 225.948 25.2446C224.581 27.7242 222.65 29.6367 220.156 30.982C217.689 32.3273 214.792 33 211.467 33ZM211.467 27.7374C214.739 27.7374 217.286 26.735 219.11 24.7302C220.934 22.699 221.845 19.9556 221.845 16.5C221.845 13.018 220.934 10.2746 219.11 8.26978C217.313 6.26499 214.766 5.26259 211.467 5.26259C208.195 5.26259 205.648 6.26499 203.824 8.26978C202.001 10.2746 201.089 13.018 201.089 16.5C201.089 19.9556 202.001 22.699 203.824 24.7302C205.648 26.735 208.195 27.7374 211.467 27.7374Z" fill="#202121"/>
<g clip-path="url(#clip0_541_432)">
<path d="M55.5 1H77.5L58.5 33H36.5L55.5 1Z" fill="#FF7A00"/>
<path d="M35.5 1H51.5L32.5 33H16.5L35.5 1Z" fill="#FF9736"/>
<path d="M19.5 1H31.5L12.5 33H0.5L19.5 1Z" fill="#FFBC7D"/>
</g>
<defs>
<clipPath id="clip0_541_432">
<rect width="78" height="32" fill="white" transform="translate(0 1)"/>
</clipPath>
</defs>
</svg>
